<svg preserveAspectRatio="none" overflow="visible" style="display: block;" width="18" height="18" viewBox="0 0 18 18" fill="none" xmlns="http://www.w3.org/2000/svg">
<g id="puzzle" clip-path="url(#clip0_0_30)">
<path id="Vector" d="M11.8836 3.48771C11.7545 3.454 11.6368 3.38647 11.5425 3.29209L10.2802 2.02975C10.1121 1.86161 9.91253 1.72823 9.69287 1.63723C9.4732 1.54624 9.23777 1.4994 9 1.4994C8.76224 1.4994 8.5268 1.54624 8.30713 1.63723C8.08747 1.72823 7.88788 1.86161 7.71976 2.02975L6.45751 3.29134C6.36314 3.38563 6.29562 3.50338 6.26191 3.63245C6.22821 3.76153 6.22953 3.89726 6.26575 4.02565C6.30198 4.15404 6.37178 4.27045 6.46798 4.36287C6.56418 4.45529 6.68328 4.52038 6.81301 4.55143C7.13711 4.62919 7.43463 4.79193 7.67493 5.02291C7.91523 5.25388 8.08962 5.54474 8.18015 5.86553C8.27067 6.18632 8.27406 6.52545 8.18996 6.84798C8.10586 7.17052 7.93732 7.46481 7.70168 7.70054C7.46604 7.93627 7.17184 8.10493 6.84935 8.18914C6.52687 8.27335 6.18777 8.27008 5.86697 8.17965C5.54618 8.08922 5.25528 7.91491 5.02424 7.67467C4.7932 7.43443 4.63037 7.13694 4.55252 6.81284C4.52147 6.6831 4.45638 6.56399 4.36397 6.46779C4.27155 6.37159 4.15516 6.30177 4.02677 6.26555C3.89839 6.22932 3.76267 6.228 3.63361 6.26171C3.50454 6.29542 3.3868 6.36294 3.29252 6.45732L2.03028 7.71966C1.86215 7.88779 1.72878 8.0874 1.63779 8.30708C1.5468 8.52676 1.49996 8.76222 1.49996 9C1.49996 9.23778 1.5468 9.47324 1.63779 9.69292C1.72878 9.9126 1.86215 10.1122 2.03028 10.2803L3.29252 11.5419C3.38689 11.6362 3.45441 11.754 3.48812 11.883C3.52183 12.0121 3.5205 12.1478 3.48428 12.2762C3.44806 12.4046 3.37825 12.521 3.28205 12.6135C3.18586 12.7059 3.06676 12.771 2.93702 12.802C2.61292 12.8798 2.3154 13.0425 2.0751 13.2735C1.8348 13.5045 1.66041 13.7953 1.56989 14.1161C1.47936 14.4369 1.47597 14.776 1.56007 15.0986C1.64417 15.4211 1.81272 15.7154 2.04835 15.9511C2.28399 16.1869 2.5782 16.3555 2.90068 16.4397C3.22316 16.5239 3.56226 16.5207 3.88306 16.4302C4.20386 16.3398 4.49475 16.1655 4.72579 15.9253C4.95683 15.685 5.11966 15.3875 5.19752 15.0634C5.22856 14.9337 5.29365 14.8146 5.38606 14.7184C5.47848 14.6222 5.59488 14.5524 5.72326 14.5161C5.85164 14.4799 5.98736 14.4786 6.11643 14.5123C6.24549 14.546 6.36323 14.6135 6.45751 14.7079L7.71976 15.9702C7.88788 16.1384 8.08747 16.2718 8.30713 16.3628C8.5268 16.4538 8.76224 16.5006 9 16.5006C9.23777 16.5006 9.4732 16.4538 9.69287 16.3628C9.91253 16.2718 10.1121 16.1384 10.2802 15.9702L11.5425 14.7087C11.6369 14.6144 11.7044 14.4966 11.7381 14.3675C11.7718 14.2385 11.7705 14.1027 11.7342 13.9743C11.698 13.846 11.6282 13.7296 11.532 13.6371C11.4358 13.5447 11.3167 13.4796 11.187 13.4486C10.8629 13.3708 10.5654 13.2081 10.3251 12.9771C10.0848 12.7461 9.91038 12.4553 9.81985 12.1345C9.72933 11.8137 9.72594 11.4746 9.81004 11.152C9.89414 10.8295 10.0627 10.5352 10.2983 10.2995C10.534 10.0637 10.8282 9.89507 11.1506 9.81086C11.4731 9.72665 11.8122 9.72992 12.133 9.82035C12.4538 9.91078 12.7447 10.0851 12.9758 10.3253C13.2068 10.5656 13.3696 10.8631 13.4475 11.1872C13.4785 11.3169 13.5436 11.436 13.636 11.5322C13.7284 11.6284 13.8448 11.6982 13.9732 11.7345C14.1016 11.7707 14.2373 11.772 14.3664 11.7383C14.4955 11.7046 14.6132 11.6371 14.7075 11.5427L15.9697 10.2803C16.1379 10.1122 16.2712 9.9126 16.3622 9.69292C16.4532 9.47324 16.5 9.23778 16.5 9C16.5 8.76222 16.4532 8.52676 16.3622 8.30708C16.2712 8.0874 16.1379 7.88779 15.9697 7.71966L14.7075 6.45807C14.6131 6.36379 14.5456 6.24604 14.5119 6.11696C14.4782 5.98789 14.4795 5.85216 14.5157 5.72376C14.5519 5.59537 14.6217 5.47896 14.7179 5.38654C14.8141 5.29412 14.9332 5.22903 15.063 5.19798C15.3871 5.12023 15.6846 4.95748 15.9249 4.72651C16.1652 4.49553 16.3396 4.20467 16.4301 3.88388C16.5206 3.56309 16.524 3.22396 16.4399 2.90143C16.3558 2.57889 16.1873 2.28461 15.9516 2.04887C15.716 1.81314 15.4218 1.64449 15.0993 1.56027C14.7768 1.47606 14.4377 1.47934 14.1169 1.56976C13.7961 1.66019 13.5052 1.8345 13.2742 2.07474C13.0432 2.31498 12.8803 2.61247 12.8025 2.93657C12.7714 3.06631 12.7064 3.18542 12.6139 3.28162C12.5215 3.37783 12.4051 3.44764 12.2767 3.48387C12.1484 3.52009 12.0126 3.52142 11.8836 3.48771Z" stroke="#2563EB" stroke-width="2" stroke-linecap="round"/>
</g>
<defs>
<clipPath id="clip0_0_30">
<rect width="18" height="18" fill="white"/>
</clipPath>
</defs>
</svg>
